<svg xmlns="http://www.w3.org/2000/svg" viewBox="90 270 650 550">
  <path fill="#9CA3AF" d="M 93.00 815.43 C93.00,814.48 95.98,806.69 99.62,798.11 C123.01,743.00 173.71,624.23 175.01,621.50 C175.86,619.70 189.99,586.84 230.69,492.00 C244.00,460.97 261.55,420.32 265.01,412.50 C265.99,410.30 268.60,404.23 270.82,399.00 C278.86,380.09 288.02,360.61 289.25,359.83 C289.94,359.39 307.48,359.02 328.22,359.02 L 365.95 359.00 L 367.46 361.93 C370.07,366.96 433.37,464.93 476.15,530.14 C484.32,542.59 491.00,553.08 491.00,553.45 C491.00,553.82 485.65,566.36 479.11,581.31 C472.57,596.27 465.02,613.64 462.33,619.93 C459.63,626.21 457.00,631.46 456.47,631.60 C455.47,631.85 442.97,613.22 398.02,544.50 C357.71,482.89 333.66,447.09 332.19,446.52 C331.28,446.17 329.18,449.59 325.58,457.25 C315.56,478.64 319.39,469.85 283.62,553.50 C271.16,582.65 260.54,607.40 260.01,608.50 C259.48,609.60 253.47,623.55 246.65,639.50 C227.83,683.53 181.24,792.26 176.60,803.00 C174.34,808.22 171.96,813.40 171.32,814.50 C170.18,816.44 168.91,816.51 131.57,816.82 C95.65,817.12 93.00,817.03 93.00,815.43 ZM 422.73 803.39 C418.13,796.30 406.77,778.80 397.50,764.50 C356.70,701.54 331.80,663.17 320.34,645.56 C309.52,628.96 308.00,626.10 308.00,622.42 C308.00,617.44 311.16,608.46 320.98,585.50 C332.56,558.42 339.77,543.74 341.10,544.56 C342.53,545.44 370.62,587.98 401.49,636.00 C446.98,706.76 461.42,727.45 464.82,726.80 C466.84,726.41 481.84,693.28 534.68,572.50 C538.77,563.15 542.77,554.06 543.58,552.29 C545.18,548.81 552.77,531.37 561.98,510.00 C565.18,502.58 574.06,482.10 581.72,464.50 C606.52,407.54 611.27,396.13 610.74,394.77 C610.46,394.03 604.66,391.69 597.86,389.57 C566.24,379.68 555.00,375.59 555.00,373.94 C555.00,372.74 571.91,360.82 605.50,338.36 C670.39,294.96 704.74,273.34 706.30,274.90 C707.42,276.02 712.37,304.62 717.03,337.00 C717.47,340.02 719.64,355.10 721.87,370.50 C724.09,385.90 727.49,409.98 729.44,424.00 C731.38,438.02 733.21,451.19 733.50,453.25 C733.82,455.54 733.61,457.00 732.97,457.00 C731.17,457.00 724.02,453.03 710.36,444.46 C688.08,430.49 681.09,427.09 678.24,428.85 C676.97,429.64 662.96,460.98 630.37,536.00 C620.21,559.38 611.30,579.85 610.57,581.50 C603.81,596.76 595.58,615.59 578.47,655.00 C570.94,672.33 560.97,695.28 556.30,706.00 C551.63,716.72 543.83,734.72 538.97,746.00 C520.36,789.12 509.90,812.53 508.72,813.66 C507.86,814.50 496.37,815.05 469.31,815.56 L 431.11 816.27 L 422.73 803.39 Z" />
</svg>
