<svg xmlns="http://www.w3.org/2000/svg" width="1387" height="756" viewBox="0 0 1387 756">
<g>
<path d="M 237.00 475.47 C237.00,474.75 299.63,330.64 301.64,326.75 L 303.05 324.00 L 315.81 324.00 L 328.57 324.00 L 330.47 327.25 C331.52,329.04 340.84,343.61 351.19,359.63 L 370.00 388.76 L 364.11 402.01 L 358.22 415.25 L 351.29 404.88 C347.47,399.17 338.37,385.16 331.06,373.75 C323.74,362.34 317.48,353.01 317.13,353.03 C316.78,353.04 312.67,361.91 308.00,372.75 C303.33,383.58 291.39,411.13 281.49,433.97 L 263.47 475.50 L 250.24 475.78 C242.96,475.93 237.00,475.79 237.00,475.47 ZM 330.05 445.77 C319.36,429.12 310.01,414.55 309.28,413.40 C308.11,411.53 308.60,409.82 313.66,398.15 C316.80,390.92 319.62,385.02 319.93,385.05 C320.24,385.08 326.11,393.97 332.96,404.80 C354.33,438.58 360.17,447.23 361.02,446.35 C361.93,445.41 410.07,336.73 409.72,336.40 C409.60,336.29 405.31,334.90 400.18,333.31 C395.06,331.72 390.84,330.01 390.80,329.51 C390.72,328.35 440.91,295.57 441.65,296.31 C442.33,296.99 450.95,357.35 450.44,357.88 C450.24,358.09 446.12,355.69 441.29,352.56 C434.59,348.22 432.30,347.18 431.67,348.18 C431.21,348.91 418.36,377.85 403.13,412.50 L 375.42 475.50 L 362.46 475.77 L 349.50 476.05 L 330.05 445.77 ZM 600.84 433.15 C588.58,429.09 580.27,420.99 576.87,409.78 C568.78,383.15 591.43,359.33 620.53,363.86 C639.29,366.78 650.78,378.81 651.78,396.59 C652.75,413.88 645.11,425.98 629.18,432.36 C622.21,435.16 608.08,435.54 600.84,433.15 ZM 620.30 416.65 C633.60,411.09 634.77,390.45 622.25,382.25 C618.79,379.98 609.59,380.02 605.25,382.33 C600.93,384.62 597.17,390.49 596.39,396.16 C595.63,401.69 597.99,409.70 601.29,412.80 C606.39,417.59 614.24,419.18 620.30,416.65 ZM 750.01 433.10 C734.35,427.53 729.93,408.02 742.21,398.65 C748.02,394.22 753.48,392.86 767.75,392.27 C780.44,391.74 781.00,391.63 781.00,389.58 C781.00,385.08 776.17,380.98 769.33,379.68 C764.93,378.85 756.22,380.42 750.62,383.05 C748.03,384.26 745.77,385.09 745.58,384.88 C744.37,383.52 739.00,373.11 739.00,372.11 C739.00,371.44 741.44,369.77 744.42,368.41 C761.92,360.40 784.78,361.93 794.18,371.74 C801.39,379.27 801.47,379.62 801.81,408.25 L 802.12 434.00 L 792.56 434.00 L 783.00 434.00 L 783.00 430.33 L 783.00 426.65 L 780.75 428.71 C774.08,434.81 760.34,436.77 750.01,433.10 ZM 772.08 419.86 C777.46,418.24 780.96,414.27 781.26,409.44 L 781.50 405.50 L 771.43 405.22 C762.45,404.96 761.06,405.16 758.68,407.04 C754.22,410.55 755.14,417.28 760.40,419.57 C764.26,421.25 767.19,421.32 772.08,419.86 ZM 931.99 434.06 C909.47,429.94 897.77,407.88 906.15,385.35 C914.22,363.67 945.19,357.43 961.88,374.12 C964.08,376.31 966.78,380.00 967.88,382.31 C970.13,387.00 972.52,399.21 971.64,401.51 C971.15,402.78 966.90,403.00 942.53,403.00 C914.52,403.00 914.00,403.04 914.00,405.03 C914.00,411.28 920.64,419.74 928.05,422.93 C938.54,427.44 949.05,426.37 958.00,419.89 L 962.37 416.72 L 964.68 419.61 C965.95,421.20 966.99,423.04 967.00,423.70 C967.00,425.25 959.71,430.18 954.25,432.32 C949.10,434.33 938.16,435.19 931.99,434.06 ZM 961.55 392.25 C960.16,386.54 956.60,380.72 952.79,377.97 C944.70,372.11 932.01,371.82 923.85,377.32 C919.45,380.28 915.09,386.69 914.34,391.27 L 913.74 395.00 L 937.98 395.00 L 962.22 395.00 L 961.55 392.25 ZM 1112.09 433.93 C1106.29,432.90 1095.70,428.54 1093.98,426.48 C1093.23,425.57 1093.54,424.19 1095.09,421.57 C1096.28,419.56 1097.53,418.07 1097.87,418.26 C1109.64,424.65 1120.68,427.06 1129.30,425.13 C1137.01,423.41 1140.21,420.26 1139.81,414.78 C1139.55,411.29 1138.93,410.18 1136.19,408.34 C1134.37,407.12 1130.32,405.63 1127.19,405.04 C1107.89,401.40 1100.27,398.14 1097.50,392.35 C1094.12,385.26 1096.71,374.48 1102.85,370.11 C1112.22,363.43 1130.13,362.71 1142.76,368.49 L 1148.08 370.93 L 1145.99 375.03 C1144.83,377.28 1143.58,378.97 1143.20,378.76 C1134.11,373.96 1124.77,372.24 1116.83,373.91 C1109.18,375.53 1105.79,378.87 1106.20,384.40 C1106.57,389.42 1110.05,392.06 1118.62,393.85 C1139.83,398.29 1145.76,400.66 1148.37,405.79 C1153.76,416.34 1149.02,427.61 1137.35,431.97 C1130.82,434.41 1119.68,435.28 1112.09,433.93 ZM 490.45 432.74 C490.19,432.05 490.09,416.41 490.24,397.99 L 490.50 364.50 L 500.00 364.50 L 509.50 364.50 L 509.81 367.75 C509.99,369.54 510.29,371.00 510.50,371.00 C510.70,371.00 513.03,369.66 515.68,368.03 C522.24,363.98 532.42,362.28 540.24,363.93 C548.69,365.71 554.81,370.24 558.48,377.43 L 561.50 383.35 L 561.80 408.68 L 562.10 434.00 L 551.55 434.00 L 541.00 434.00 L 541.00 412.97 C541.00,390.67 540.46,387.45 536.10,383.56 C534.65,382.27 532.01,381.49 528.21,381.22 C523.46,380.89 521.92,381.22 519.05,383.16 C512.10,387.89 511.54,390.03 511.18,413.25 L 510.86 434.00 L 500.90 434.00 C493.82,434.00 490.80,433.64 490.45,432.74 ZM 682.16 432.25 C681.66,431.29 678.87,424.88 675.97,418.00 C660.46,381.29 654.19,365.42 654.89,364.71 C655.32,364.28 660.12,364.05 665.55,364.21 L 675.42 364.50 L 684.39 386.75 C689.33,398.99 693.62,409.00 693.93,408.99 C694.24,408.98 698.78,398.97 704.00,386.74 L 713.50 364.50 L 723.25 364.21 C730.84,363.99 733.00,364.22 733.00,365.26 C733.00,365.99 728.80,376.47 723.67,388.54 C718.53,400.62 712.13,415.79 709.44,422.25 L 704.54 434.00 L 693.81 434.00 C684.60,434.00 682.94,433.75 682.16,432.25 ZM 823.00 399.50 L 823.00 365.00 L 828.00 365.00 L 833.00 365.00 L 833.00 370.07 L 833.00 375.13 L 837.34 371.58 C843.42,366.59 849.01,364.81 858.50,364.81 C867.88,364.82 873.72,366.92 878.84,372.11 C885.90,379.28 887.00,384.76 887.00,412.60 L 887.00 434.10 L 881.75 433.80 L 876.50 433.50 L 876.44 410.96 C876.38,389.59 876.26,388.18 874.09,383.70 C870.84,376.97 865.49,374.00 856.63,374.00 C846.14,374.00 840.03,377.35 835.66,385.50 C833.69,389.18 833.49,391.27 833.17,411.75 L 832.83 434.00 L 827.92 434.00 L 823.00 434.00 L 823.00 399.50 ZM 1001.49 432.75 C1001.25,432.06 995.64,416.97 989.02,399.20 C982.41,381.44 977.00,366.48 977.00,365.95 C977.00,365.43 979.01,365.00 981.46,365.00 C984.91,365.00 986.17,365.46 987.01,367.01 C987.60,368.12 992.12,380.15 997.06,393.76 C1002.00,407.37 1006.29,419.17 1006.59,420.00 C1007.07,421.33 1007.23,421.33 1007.97,420.00 C1008.43,419.17 1012.92,407.29 1017.96,393.58 C1022.99,379.87 1027.55,367.83 1028.09,366.83 C1029.25,364.67 1036.16,364.26 1037.75,366.25 C1038.30,366.94 1043.19,379.53 1048.62,394.24 C1054.06,408.95 1058.73,420.99 1059.02,420.99 C1059.30,421.00 1062.86,411.89 1066.92,400.75 C1070.98,389.61 1075.63,377.01 1077.24,372.75 L 1080.18 365.00 L 1084.59 365.00 C1087.47,365.00 1088.98,365.43 1088.95,366.25 C1088.93,366.94 1083.38,382.35 1076.62,400.50 L 1064.33 433.50 L 1059.04 433.50 L 1053.74 433.50 L 1043.62 406.77 C1038.05,392.07 1033.28,380.03 1033.00,380.03 C1032.72,380.02 1028.00,392.16 1022.50,407.01 L 1012.50 434.00 L 1007.22 434.00 C1003.90,434.00 1001.77,433.54 1001.49,432.75 ZM 460.08 307.21 C456.30,282.34 451.88,277.66 428.22,273.40 C423.11,272.48 419.06,271.61 419.22,271.47 C419.37,271.32 423.48,270.46 428.35,269.55 C451.14,265.30 455.77,260.57 459.89,237.32 L 461.64 227.50 L 463.37 236.92 C466.72,255.12 470.65,262.07 479.54,265.46 C481.92,266.37 488.68,268.12 494.55,269.35 L 505.24 271.59 L 495.68 273.29 C472.20,277.45 467.49,282.17 463.52,305.50 C462.59,311.00 461.73,315.60 461.62,315.71 C461.50,315.83 460.81,312.00 460.08,307.21 Z" fill="rgba(0,0,0,1)"/>
</g>
</svg>